<?xml version="1.0" encoding="utf-8"?>

<!-- Generator: Adobe Illustrator 25.2.0, SVG Export Plug-In . SVG Version: 6.00 Build 0)  -->

<svg version="1.1" id="Calque_1" xmlns="http://www.w3.org/2000/svg" xmlns:xlink="http://www.w3.org/1999/xlink" x="0px" y="0px"

	 viewBox="0 0 1188.9 496.6" style="enable-background:new 0 0 1188.9 496.6;" xml:space="preserve">

<style type="text/css">

	.st0{fill:#153c88;}

	.st1{fill:#FFFFFF;}

	.st2{fill:#153c88;}

	.st3{fill:#E94653;}

</style>

<g>

	<path class="st0" d="M130.6,0c66,0,114.3,42.6,123.5,96.9h-61C186,71.7,161.8,54,130.6,54c-21.3,0-38.7,7.1-52.2,21.3

		C65,89.4,58.2,107.2,58.2,128.8c0,21.6,6.7,39.7,20.2,53.9c13.5,13.8,30.9,20.9,52.2,20.9c31.2,0,55-17.4,64.6-41.9h61.4

		c-5.3,28-19.5,50.7-42.6,68.8c-23.1,18.1-50.7,27-83.4,27C54.7,258.7-1.4,201.2,0,128.8C-1.4,56.8,54.7-1.1,130.6,0"/>

	<polygon class="st0" points="294.9,253 294.9,4.6 452.1,4.6 452.1,52.5 351,52.5 351,104 437.2,104 437.2,151.9 351,151.9 

		351,204.8 456,204.8 456,253 	"/>

	<polygon class="st0" points="501.1,253 501.1,4.6 658.3,4.6 658.3,52.5 557.1,52.5 557.1,109.7 648.3,109.7 648.3,157.6 

		557.1,157.6 557.1,253 	"/>

	<path class="st0" d="M654.4,253L738.8,4.6h71.7L896,253h-59.6l-14.9-44h-95.1l-14.5,44H654.4z M741.7,159h64.6l-30.5-92.6h-3.2

		L741.7,159z"/>

	<polygon class="st0" points="923.7,253 923.7,4.6 992.9,4.6 1060,173.2 1062.1,173.2 1121,4.6 1190.6,4.6 1190.6,253 1136.3,253 

		1136.3,112.5 1134.1,112.5 1082.3,253 1037.3,253 979.8,106.8 977.6,106.8 977.6,253 	"/>


		<rect x="501.3" y="206.6" transform="matrix(0.9397 -0.342 0.342 0.9397 -60.4027 198.7134)" class="st1" width="64" height="128"/>

		<rect x="441.2" y="228.5" transform="matrix(0.9397 -0.342 0.342 0.9397 -71.5107 179.4756)" class="st2" width="63.9" height="128"/>

		<rect x="561.5" y="184.8" transform="matrix(0.9397 -0.342 0.342 0.9397 -49.2948 217.9539)" class="st3" width="63.9" height="128"/>

		<rect x="577.8" y="218.7" transform="matrix(0.9397 -0.342 0.342 0.9397 -56.0604 247.5182)" class="st1" width="192" height="128"/>

	<path class="st3" d="M598.8,357.2l180.4-65.7l-3.4-9.3l-180.4,65.7L598.8,357.2z M592,338.7L772.5,273l-3.4-9.2l-180.4,65.7

		L592,338.7z M585.3,320.2l180.4-65.7l-3.4-9.3l-180.4,65.7L585.3,320.2z M578.6,301.7L759,236l-3.4-9.3l-180.4,65.7L578.6,301.7z

		 M571.8,283.2l180.4-65.7l-3.4-9.3l-180.4,65.7L571.8,283.2z M565.1,264.7L745.5,199l-3.4-9.3l-180.4,65.7L565.1,264.7z

		 M605.5,375.7L785.9,310l-3.4-9.3l-180.4,65.7L605.5,375.7z"/>

	

		<rect x="570.6" y="236.7" transform="matrix(0.9397 -0.342 0.342 0.9397 -55.4161 228.1134)" class="st0" width="97.1" height="68.9"/>

	<polygon class="st1" points="570.5,255.2 572.3,257.5 575,256.5 573.5,259 575.2,261.2 572.4,260.5 570.7,262.9 570.6,260 

		567.8,259.1 570.5,258.1 	"/>

	<polygon class="st1" points="585.6,249.7 587.4,251.9 590.2,251 588.6,253.4 590.3,255.7 587.5,255 585.9,257.4 585.7,254.5 

		583,253.6 585.6,252.6 	"/>

	<polygon class="st1" points="600.8,244.2 602.6,246.4 605.3,245.5 603.8,247.9 605.5,250.2 602.7,249.5 601,251.8 600.9,249 

		598.1,248.1 600.8,247.1 	"/>

	<polygon class="st1" points="615.9,238.7 617.7,240.9 620.4,240 618.9,242.4 620.6,244.7 617.8,244 616.2,246.3 616,243.5 

		613.3,242.6 615.9,241.6 	"/>

	<polygon class="st1" points="631,233.2 632.9,235.4 635.6,234.5 634,236.9 635.7,239.2 633,238.5 631.3,240.8 631.1,238 

		628.4,237.1 631.1,236.1 	"/>

	<polygon class="st1" points="646.2,227.7 648,229.9 650.7,229 649.2,231.4 650.9,233.7 648.1,233 646.4,235.3 646.3,232.5 

		643.5,231.6 646.2,230.6 	"/>

	<polygon class="st1" points="580.4,259 582.2,261.2 584.9,260.3 583.3,262.7 585,265 582.3,264.3 580.6,266.6 580.4,263.8 

		577.7,262.9 580.4,261.9 	"/>

	<polygon class="st1" points="595.5,253.5 597.3,255.7 600,254.8 598.5,257.2 600.2,259.5 597.4,258.8 595.8,261.1 595.6,258.3 

		592.9,257.4 595.5,256.4 	"/>

	<polygon class="st1" points="610.6,248 612.4,250.2 615.2,249.3 613.6,251.7 615.3,254 612.6,253.3 610.9,255.6 610.7,252.8 

		608,251.9 610.7,250.9 	"/>

	<polygon class="st1" points="625.8,242.5 627.6,244.7 630.3,243.8 628.8,246.2 630.5,248.5 627.7,247.8 626,250.1 625.9,247.3 

		623.1,246.4 625.8,245.3 	"/>

	<polygon class="st1" points="640.9,237 642.7,239.2 645.4,238.3 643.9,240.7 645.6,243 642.8,242.3 641.2,244.6 641,241.8 

		638.3,240.9 640.9,239.8 	"/>

	<polygon class="st1" points="575.2,268.3 577,270.5 579.8,269.6 578.2,272 579.9,274.3 577.1,273.6 575.5,275.9 575.3,273 

		572.6,272.2 575.2,271.1 	"/>

	<polygon class="st1" points="590.4,262.8 592.2,265 594.9,264.1 593.4,266.5 595.1,268.8 592.3,268 590.6,270.4 590.5,267.5 

		587.7,266.7 590.4,265.6 	"/>

	<polygon class="st1" points="605.5,257.2 607.3,259.5 610,258.5 608.5,261 610.2,263.3 607.4,262.5 605.8,264.9 605.6,262 

		602.9,261.2 605.5,260.1 	"/>

	<polygon class="st1" points="620.6,251.7 622.5,253.9 625.2,253 623.6,255.4 625.3,257.7 622.6,257 620.9,259.4 620.7,256.5 

		618,255.6 620.7,254.6 	"/>

	<polygon class="st1" points="635.8,246.2 637.6,248.4 640.3,247.5 638.8,249.9 640.5,252.2 637.7,251.5 636,253.8 635.9,251 

		633.1,250.1 635.8,249.1 	"/>

	<polygon class="st1" points="650.9,240.7 652.7,242.9 655.4,242 653.9,244.4 655.6,246.7 652.8,246 651.2,248.3 651,245.5 

		648.3,244.6 650.9,243.6 	"/>

	<polygon class="st1" points="585.1,272 586.9,274.3 589.6,273.3 588.1,275.8 589.8,278.1 587,277.3 585.4,279.7 585.2,276.8 

		582.5,276 585.1,274.9 	"/>

	<polygon class="st1" points="600.2,266.5 602,268.7 604.8,267.8 603.2,270.2 604.9,272.5 602.2,271.8 600.5,274.2 600.3,271.3 

		597.6,270.4 600.3,269.4 	"/>

	<polygon class="st1" points="615.4,261 617.2,263.2 619.9,262.3 618.4,264.7 620.1,267 617.3,266.3 615.6,268.6 615.5,265.8 

		612.7,264.9 615.4,263.9 	"/>

	<polygon class="st1" points="630.5,255.5 632.3,257.7 635,256.8 633.5,259.2 635.2,261.5 632.4,260.8 630.8,263.1 630.6,260.3 

		627.9,259.4 630.5,258.4 	"/>

	<polygon class="st1" points="645.6,250 647.5,252.2 650.2,251.3 648.6,253.7 650.3,256 647.6,255.3 645.9,257.6 645.7,254.8 

		643,253.9 645.7,252.9 	"/>

	<polygon class="st1" points="580,281.3 581.8,283.5 584.5,282.6 583,285 584.7,287.3 581.9,286.6 580.2,288.9 580.1,286.1 

		577.3,285.2 580,284.1 	"/>

	<polygon class="st1" points="595.1,275.8 596.9,278 599.6,277.1 598.1,279.5 599.8,281.8 597,281.1 595.4,283.4 595.2,280.5 

		592.5,279.7 595.1,278.6 	"/>

	<polygon class="st1" points="610.2,270.3 612.1,272.5 614.8,271.6 613.2,274 614.9,276.3 612.2,275.6 610.5,277.9 610.3,275 

		607.6,274.2 610.3,273.1 	"/>

	<polygon class="st1" points="625.4,264.8 627.2,267 629.9,266.1 628.4,268.5 630.1,270.8 627.3,270 625.6,272.4 625.5,269.5 

		622.7,268.7 625.4,267.6 	"/>

	<polygon class="st1" points="640.5,259.2 642.3,261.5 645,260.5 643.5,263 645.2,265.3 642.4,264.5 640.8,266.9 640.6,264 

		637.9,263.2 640.5,262.1 	"/>

	<polygon class="st1" points="655.7,253.7 657.5,255.9 660.2,255 658.6,257.4 660.3,259.7 657.6,259 655.9,261.4 655.7,258.5 

		653,257.6 655.7,256.6 	"/>

	<polygon class="st1" points="589.8,285.1 591.7,287.3 594.4,286.4 592.8,288.8 594.5,291.1 591.8,290.4 590.1,292.7 589.9,289.8 

		587.2,289 589.9,287.9 	"/>

	<polygon class="st1" points="605,279.6 606.8,281.8 609.5,280.9 608,283.3 609.7,285.6 606.9,284.9 605.2,287.2 605.1,284.3 

		602.3,283.5 605,282.4 	"/>

	<polygon class="st1" points="620.1,274 621.9,276.3 624.6,275.3 623.1,277.8 624.8,280.1 622,279.3 620.4,281.7 620.2,278.8 

		617.5,278 620.1,276.9 	"/>

	<polygon class="st1" points="635.2,268.5 637.1,270.7 639.8,269.8 638.2,272.2 639.9,274.5 637.2,273.8 635.5,276.2 635.3,273.3 

		632.6,272.4 635.3,271.4 	"/>

	<polygon class="st1" points="650.4,263 652.2,265.2 654.9,264.3 653.4,266.7 655.1,269 652.3,268.3 650.6,270.7 650.5,267.8 

		647.7,266.9 650.4,265.9 	"/>

	<polygon class="st1" points="584.7,294.3 586.5,296.5 589.2,295.6 587.7,298 589.4,300.3 586.6,299.6 585,301.9 584.8,299.1 

		582.1,298.2 584.7,297.2 	"/>

	<polygon class="st1" points="599.8,288.8 601.7,291 604.4,290.1 602.8,292.5 604.5,294.8 601.8,294.1 600.1,296.4 599.9,293.6 

		597.2,292.7 599.9,291.7 	"/>

	<polygon class="st1" points="615,283.3 616.8,285.5 619.5,284.6 618,287 619.7,289.3 616.9,288.6 615.2,290.9 615.1,288.1 

		612.3,287.2 615,286.2 	"/>

	<polygon class="st1" points="630.1,277.8 631.9,280 634.6,279.1 633.1,281.5 634.8,283.8 632,283.1 630.4,285.4 630.2,282.5 

		627.5,281.7 630.1,280.6 	"/>

	<polygon class="st1" points="645.3,272.3 647.1,274.5 649.8,273.6 648.2,276 650,278.3 647.2,277.6 645.5,279.9 645.3,277 

		642.6,276.2 645.3,275.1 	"/>

	<polygon class="st1" points="660.4,266.8 662.2,269 664.9,268.1 663.4,270.5 665.1,272.8 662.3,272.1 660.7,274.4 660.5,271.5 

		657.8,270.7 660.4,269.6 	"/>

	<polygon class="st1" points="594.6,298.1 596.4,300.3 599.1,299.4 597.6,301.8 599.3,304.1 596.5,303.4 594.8,305.7 594.7,302.9 

		591.9,302 594.6,301 	"/>

	<polygon class="st1" points="609.7,292.6 611.5,294.8 614.2,293.9 612.7,296.3 614.4,298.6 611.6,297.9 610,300.2 609.8,297.4 

		607.1,296.5 609.7,295.4 	"/>

	<polygon class="st1" points="624.8,287.1 626.7,289.3 629.4,288.4 627.8,290.8 629.5,293.1 626.8,292.4 625.1,294.7 624.9,291.8 

		622.2,291 624.9,289.9 	"/>

	<polygon class="st1" points="640,281.6 641.8,283.8 644.5,282.9 643,285.3 644.7,287.6 641.9,286.9 640.3,289.2 640.1,286.3 

		637.4,285.5 640,284.4 	"/>

	<polygon class="st1" points="655.1,276.1 656.9,278.3 659.7,277.4 658.1,279.8 659.8,282.1 657.1,281.3 655.4,283.7 655.2,280.8 

		652.5,280 655.1,278.9 	"/>

	<polygon class="st1" points="589.4,307.3 591.3,309.5 594,308.6 592.4,311 594.1,313.3 591.4,312.6 589.7,315 589.5,312.1 

		586.8,311.2 589.5,310.2 	"/>

	<polygon class="st1" points="604.6,301.8 606.4,304 609.1,303.1 607.6,305.5 609.3,307.8 606.5,307.1 604.8,309.4 604.7,306.6 

		601.9,305.7 604.6,304.7 	"/>

	<polygon class="st1" points="619.7,296.3 621.5,298.5 624.3,297.6 622.7,300 624.4,302.3 621.6,301.6 620,303.9 619.8,301.1 

		617.1,300.2 619.7,299.2 	"/>

	<polygon class="st1" points="634.9,290.8 636.7,293 639.4,292.1 637.8,294.5 639.6,296.8 636.8,296.1 635.1,298.4 635,295.6 

		632.2,294.7 634.9,293.7 	"/>

	<polygon class="st1" points="650,285.3 651.8,287.5 654.5,286.6 653,289 654.7,291.3 651.9,290.6 650.3,292.9 650.1,290.1 

		647.4,289.2 650,288.2 	"/>

	<polygon class="st1" points="665.1,279.8 667,282 669.7,281.1 668.1,283.5 669.8,285.8 667.1,285.1 665.4,287.4 665.2,284.6 

		662.5,283.7 665.2,282.6 	"/>
</g>

</svg>

