<?xml version="1.0" encoding="UTF-8"?>
<svg id="Layer_1" xmlns="http://www.w3.org/2000/svg" version="1.1" viewBox="0 0 714.74 170.08">
  <!-- Generator: Adobe Illustrator 29.2.1, SVG Export Plug-In . SVG Version: 2.1.0 Build 116)  -->
  <defs>
    <style>
      .st0 {
        fill: #fff;
      }
    </style>
  </defs>
  <g>
    <g>
      <path class="st0" d="M354.27,169.57l-20.2-50.96h-72.68l-19.96,50.96h-19.22L290.71,1.18h15.03l68,168.39h-19.46ZM297.61,26.54l-30.3,77.06h60.85l-30.55-77.06Z"/>
      <g>
        <polygon class="st0" points="444.97 116.23 406.34 54.29 393.1 54.29 393.1 170.08 409.65 170.08 409.65 90.63 439.13 136.94 450.35 136.94 479.81 89.53 479.81 170.08 496.68 170.08 496.68 54.29 483.6 54.29 444.97 116.23"/>
        <path class="st0" d="M579.46,108.52c7.93-5.23,12.5-13.41,12.5-22.87,0-21.54-17.62-31.36-34-31.36h-44.33v115.79h43.51c25.22,0,40.89-12.89,40.89-33.65,0-13.27-6.81-23.32-18.56-27.91ZM530.65,102.45v-32.79h25.67c11.66,0,18.62,6.22,18.62,16.64s-6.85,16.15-18.78,16.15h-25.5ZM581,135.94c0,8.74-2.86,18.77-25.18,18.77h-25.17v-37.21h24.36c9.71,0,25.99,2.4,25.99,18.44Z"/>
        <path class="st0" d="M662.29,54.13h-13.5l-47.16,115.95h18.45l13.1-33.46h44.06l13.26,33.46h18.6l-46.82-115.95ZM671.22,121.38h-32.04l15.96-40.58,16.09,40.58Z"/>
      </g>
      <g>
        <path class="st0" d="M353.16,78.35c-7.15,0-10.79-5.66-10.79-11.83s3.64-11.76,10.79-11.76,10.79,5.59,10.79,11.76-3.64,11.83-10.79,11.83ZM353.16,56.86c-5.5,0-8.33,4.62-8.33,9.7s2.83,9.7,8.33,9.7,8.33-4.62,8.33-9.7-2.83-9.7-8.33-9.7Z"/>
        <path class="st0" d="M371.56,68.21v9.7h-2.39v-22.71h14.19v2.16h-11.8v8.69h10.79v2.16h-10.79Z"/>
      </g>
      <path class="st0" d="M702.18,56.21c-5.49,0-7.95,2.47-7.95,5.92,0,9.76,20.52,5.65,20.52,18.69,0,6.74-5.6,10.36-13,10.36-5.38,0-9.71-1.7-13.33-5.92l2.91-2.69c2.52,3.23,5.82,5.21,10.53,5.21,5.71,0,8.83-2.52,8.83-6.25,0-10.8-20.51-5.92-20.51-18.8,0-5.1,3.46-9.92,11.9-9.92,5.1,0,8.89,1.59,12.34,5.65l-2.74,2.58c-2.36-3.12-5.43-4.82-9.49-4.82Z"/>
    </g>
    <g>
      <path class="st0" d="M358.65,3.82c-6.18,0-8.96,2.78-8.96,6.67,0,10.99,23.1,6.36,23.1,21.05,0,7.59-6.3,11.67-14.64,11.67-6.06,0-10.94-1.91-15.02-6.67l3.28-3.03c2.84,3.64,6.55,5.86,11.86,5.86,6.42,0,9.95-2.84,9.95-7.03,0-12.16-23.11-6.67-23.11-21.17,0-5.74,3.89-11.17,13.41-11.17,5.75,0,10.01,1.79,13.9,6.36l-3.09,2.9c-2.66-3.52-6.11-5.43-10.68-5.43Z"/>
      <path class="st0" d="M399.25,3.82c-6.18,0-8.96,2.78-8.96,6.67,0,10.99,23.1,6.36,23.1,21.05,0,7.59-6.3,11.67-14.64,11.67-6.06,0-10.94-1.91-15.02-6.67l3.28-3.03c2.84,3.64,6.55,5.86,11.86,5.86,6.42,0,9.95-2.84,9.95-7.03,0-12.16-23.11-6.67-23.11-21.17,0-5.74,3.89-11.17,13.41-11.17,5.75,0,10.01,1.79,13.9,6.36l-3.09,2.9c-2.66-3.52-6.11-5.43-10.68-5.43Z"/>
      <path class="st0" d="M442.13,43.21c-13.1,0-19.77-10.37-19.77-21.67s6.67-21.54,19.77-21.54,19.77,10.24,19.77,21.54-6.67,21.67-19.77,21.67ZM442.13,3.82c-10.07,0-15.26,8.46-15.26,17.78s5.19,17.78,15.26,17.78,15.26-8.46,15.26-17.78-5.18-17.78-15.26-17.78Z"/>
      <path class="st0" d="M488.1,0c6.73,0,11.49,2.65,15.01,6.85l-3.21,2.84c-3.28-4.14-7.11-5.87-11.68-5.87-9.95,0-14.39,8.95-14.39,17.78s4.45,17.78,14.39,17.78c4.57,0,8.4-1.73,11.68-5.86l3.21,2.84c-3.52,4.2-8.28,6.85-15.01,6.85-12.85,0-18.78-10.56-18.78-21.54s5.93-21.67,18.78-21.67Z"/>
      <path class="st0" d="M515.48,42.41V.8h4.38v41.6h-4.38Z"/>
      <path class="st0" d="M562.25,42.41l-5.07-12.78h-18.22l-5.01,12.78h-4.82L546.31.18h3.77l17.05,42.22h-4.88ZM548.04,6.54l-7.6,19.32h15.26l-7.66-19.32Z"/>
      <path class="st0" d="M586.66,4.75v37.65h-4.38V4.75h-15.44V.8h35.21v3.95h-15.38Z"/>
      <path class="st0" d="M612.56,42.41V.8h4.38v41.6h-4.38Z"/>
      <path class="st0" d="M648.76,43.21c-13.1,0-19.77-10.37-19.77-21.67s6.67-21.54,19.77-21.54,19.77,10.24,19.77,21.54-6.67,21.67-19.77,21.67ZM648.76,3.82c-10.07,0-15.26,8.46-15.26,17.78s5.19,17.78,15.26,17.78,15.26-8.46,15.26-17.78-5.19-17.78-15.26-17.78Z"/>
      <path class="st0" d="M709.43,42.96l-25.82-34.14v33.58h-4.26V.25h3.21l25.88,34.32V.8h4.26v42.16h-3.28Z"/>
    </g>
  </g>
  <path class="st0" d="M225.08,55.96L169.64.57c-.56-.56-1.4-.73-2.13-.42-.73.3-1.21,1.01-1.21,1.8v5.08c-2.84-4.22-7.66-7-13.12-7l-40.36-.04v.02c-.51,0-1.01.18-1.38.56l-26.33,26.31L58.77.57c-.56-.56-1.4-.73-2.13-.42-.24.1-.44.26-.62.44h-.01S.57,55.96.57,55.96c-.56.56-.73,1.4-.42,2.13.1.24.26.44.44.62h-.01s55.43,55.4,55.43,55.4l55.43,55.39c.38.37.87.57,1.38.57.25,0,.51-.05.75-.15.24-.1.44-.26.62-.44h.01s55.44-55.38,55.44-55.38l55.43-55.39h-.01c.18-.19.34-.39.44-.63.3-.73.14-1.57-.42-2.13ZM55.43,108.02L6.68,59.3h48.75v48.72ZM55.43,55.39H6.68l23.81-23.79h24.95v23.79ZM55.43,27.69h-21.03L55.43,6.67v21.02ZM59.34,59.3h48.75l-48.75,48.72v-48.72ZM110.86,163.41l-50.71-50.67,50.71-50.67v101.34ZM110.86,55.39h-51.52V6.67l24.38,24.36c.76.76,2,.76,2.77,0l24.37-24.35v48.72ZM191.16,27.6h-9.04c-5.41,0-11.9-3.99-11.9-11.95V6.67l20.95,20.93ZM114.78,3.91l38.41.04c6.56,0,11.9,5.33,11.9,11.89,0,6.21-4.84,11.85-10.97,11.85h-12.49c-1.08,0-1.96.88-1.96,1.95s.88,1.95,1.96,1.95c0,0,12.02.04,12.32.03,6.16,0,11.14,5.58,11.14,11.87s-5.34,11.89-11.9,11.89h-38.41V3.91ZM114.78,163.41v-48.72h48.76l-48.76,48.72ZM166.3,110.78h-51.53v-51.48h51.53v51.48ZM166.3,55.39h-2.74c1.04-.91,1.97-1.94,2.74-3.09v3.09ZM170.22,108.02v-48.72h48.75l-48.75,48.72ZM170.22,55.39v-11.89c0-6.01,5.36-11.99,11.41-11.99h13.45l23.9,23.88h-48.76Z"/>
</svg>